<svg id="Layer_1" data-name="Layer 1" xmlns="http://www.w3.org/2000/svg" viewBox="0 0 864 864"><defs><style>.cls-1{fill:#a7a8a9;}</style></defs><path class="cls-1" d="M282.94,414.24l.84.38c5.14,1.2,10.75.81,17.69-1.22a6.26,6.26,0,0,0,3.95-4,5.54,5.54,0,0,0-.69-4.85c-1.14-1.94-3.52-4.23-8.42-4.37H296c-23.66,0-71.44,5.71-76.54,6.37l-2.36.29,2.82-2.37q6.54-5.5,13.11-11c32.17-25.73,62.52-45.93,92.8-61.76l2.15-1.13c4.55-2.39,9.25-4.86,14-7a147.22,147.22,0,0,1,16.55-6.21,61.67,61.67,0,0,1,17-3.05h.25c-.05.34-.12.69-.2,1a21.12,21.12,0,0,1-1.8,4.69c-.76,1.5-1.67,3-2.47,4.34-.45.75-.9,1.51-1.34,2.27-.77,1.34-1.65,2.61-2.69,4.09-.51.73-1,1.45-1.46,2.13l-11.34,16.23c-3.45,5-6.69,10.14-9.82,15.11-1.93,3.07-3.86,6.12-5.81,9.11l-33.4,50.25c-5.83,9.2-12,18.48-18.07,27.57l-5.54,8.93-7.5,12.61a33,33,0,0,0-2.72,4.83c-.37.75-.74,1.49-1.13,2.19a6.21,6.21,0,0,0-.63,5,8,8,0,0,0,4.36,4.69c1.69.78,8.47,2.75,10.7-1.73a27.06,27.06,0,0,1,1.76-2.55,31.45,31.45,0,0,0,2.23-3.28l2.68-4.77,10.06-16.16,15.93-24.51c6.52-10.25,13.41-20.58,20.06-30.57l.18-.26c4.27-6.42,8.55-12.85,12.77-19.29,5.4-8.1,11-16.47,16.27-25.17,3.58-5.67,7.59-11.22,11.53-16.69s8.11-11.22,11.32-17.66c2.39-5.13,4.53-11.2,2.25-17.3l0-.07c-3.91-9.75-16-9.19-23.16-8.87l-.44,0c-7.31.56-14.76,2.32-24.18,5.71-15.84,5.91-30.91,14.38-45.51,22.59-16.23,9.5-32.39,20.06-48,31.4-19.18,14-39.36,30.45-61.67,50.35l-3,.43c-12.18,1.86-24.21,4.2-33.34,6-1.17.24-2.36.51-3.56.79a59.82,59.82,0,0,1-6.64,1.28c-14,2.78-28.51,5.66-42.64,10.36l-1.25.4c-2.73.86-5.55,1.75-8,2.82l-.72.24c-1.88.6-4.73,1.51-5.52,3.73a6,6,0,0,0,0,5.69c1.38,2.65,4.65,4.2,7,4.5,2.75.59,6.24.17,8.21-2,7.52-2.62,14.51-4.82,21.3-6.7,6.06-1.52,12.42-2.83,18.58-4.08l8.07-1.65,12.86-2.64c3.18-.65,6.57-1.3,10.26-1.95l-.69.66-1.22,1.16c-1.4,1.34-2.79,2.67-4.22,4a906.48,906.48,0,0,0-71.43,77.87c-2,2.21-3.86,4.55-5.7,6.9-1.25,1.6-2.51,3.21-4,5l-5.9,7.77c-.72,1-1.82,2.46-2.42,3.2a6.16,6.16,0,0,0-2.61,2.86,4.87,4.87,0,0,0,.37,3.91c1.41,2.57,4.78,3.57,5.86,3.84a6.2,6.2,0,0,0,1.14.11,7.52,7.52,0,0,0,5.92-3.21,48.21,48.21,0,0,0,5.28-5.9c2.87-2.88,5.45-6,8.18-9.26l16-18.63c13.8-15.61,25.14-27.92,35.68-38.73,17.44-17.78,32.45-32.32,47.18-45.72,4.47-.62,9.48-1.3,14.45-1.86l9.09-1.19c15.61-2.06,47.32-5.49,61.51-6.4"/><path class="cls-1" d="M363.62,415.43l-.66.43-2.29,1.47c1.49-3.79,1.31-5.51.88-6.59a3.87,3.87,0,0,0-2.25-2.27h0l-.82-.53-.37-.17c-3.54-1.19-6.13-1.36-8.15-.55l-.86.5c-3.2,2.57-5.15,6.39-6.57,9.2l-2.24,4.44c-2.74,5.42-5.57,11-8.67,16.33-3.53,6.06-7.68,12.68-12.8,20.42a5.14,5.14,0,0,0-.05,4.28,9,9,0,0,0,5,5.11,20,20,0,0,0,4.63.73,5,5,0,0,0,4.37-1.9,19.12,19.12,0,0,0,2.78-4.18c.37-.65.73-1.31,1.15-1.9,1.4-2,3-4,4.63-5.92a121.55,121.55,0,0,1,10.34-10.57A142.1,142.1,0,0,1,388.81,419l1.74-.82c2.69-1.29,6.76-3.23,9.07-2.83.22,0,.5.11.84.2,2.37.57,6,1.45,8.61-.18a5.26,5.26,0,0,0,2.36-3.32,7.7,7.7,0,0,0-1.62-6.92c-2.59-3.05-7.34-4.18-10.91-3.94a55.75,55.75,0,0,0-19.49,5.31,130.36,130.36,0,0,0-15.79,8.95"/><path class="cls-1" d="M530,489.74c-33.36,4.74-70.56,9.92-109.94,14.24-67.9,7.45-123.8,12.48-158.26,14.29,4.22-1,8.8-2,13.72-3,94.73-20.25,160.7-29.78,207.77-29.78a274.09,274.09,0,0,1,27.72,1.3,166.6,166.6,0,0,1,19,3m66.71.65c-3.75,8.31-6.93,15.63-9.79,22.53A54.32,54.32,0,0,0,576.52,497c-1-1.08-2.12-2.14-3.35-3.22q12-1.77,23.56-3.4M435.89,423.81h0a46.81,46.81,0,0,1,6.59-5.36,14.61,14.61,0,0,1,4.56-1.94l.54-.11a48.19,48.19,0,0,1-5.89,7.39c-4,4.23-12.34,9.6-19.15,13.61,4.61-4.9,10.1-10.62,13.35-13.59m65.56,24.62c-1.07.88-2.19,1.78-3.39,2.66l.18-.55c1.61-5.08,5.13-9.19,8.91-13.59a81.42,81.42,0,0,1,11.44-11.14c.41-.33.87-.63,1.45-1l.66-.43c.78-.53,1.58-1,2.39-1.53,1.66-1,3.32-2,4.93-2.8l2-1a5,5,0,0,1,.52-.22,2.7,2.7,0,0,1,.59-.17c-11,11.24-27.53,28-29.71,29.8m245.08,29.49c-.7-3.65-4.27-5.92-7.17-6.78a38,38,0,0,0-10.18-2l-.61-.06c-9.33-.5-18.69-.07-27.82.35-13.77.87-54.86,5.24-80.34,8l.32-.67c3.33-6.37,7.23-13.35,11.65-20.86,1.66-3.3,3.64-6.58,5.56-9.76l1.14-1.9c2.36-3.93,4.67-7.77,7.09-11.55,1.2-1.86,2.33-3.78,3.46-5.69,2.49-4.23,5.06-8.6,8.35-12.21.36-.4.72-.78,1.09-1.15l.28-.28A7.62,7.62,0,0,0,662,408.9a6.54,6.54,0,0,0-2.75-5.83,10.57,10.57,0,0,0-8.11-1.87c-3.65.61-8.38,4.82-15.33,13.66l-5.24,5.85c-1.06,1.19-2.1,2.42-3.19,3.71-1.35,1.6-2.89,3.42-4.48,5.05-1.29,1.39-2.57,2.8-3.86,4.23l-.26.28c-2.59,2.85-5.27,5.8-8,8.56a75.46,75.46,0,0,1-7.06,6.4,37.75,37.75,0,0,1-4.62,3.17,7,7,0,0,1,.07-.91,22.53,22.53,0,0,1,2.21-6.26l.49-1.06c3-6.53,6.36-12.4,9.69-18.16l4.41-8.25a14,14,0,0,0,2.58-5.2,6.11,6.11,0,0,0-1.37-6.09A11.34,11.34,0,0,0,607,403a6.14,6.14,0,0,0-4.76,4.3c-2.07,7.22-9.23,12.52-15.56,17.21L582,428c-6.45,4.85-13.11,9.86-20.35,13.65l-3.1,1.65c-5,2.64-9.25,4.93-14,6.36-2.32.68-4.38.42-5.37-.66a3.16,3.16,0,0,1-.23-3.38l.94-3.15a66.48,66.48,0,0,1,4.47-10.65,15.19,15.19,0,0,1,1.45-2.44c.36-.56.73-1.11,1-1.55a62.19,62.19,0,0,1,7.21-9.59,36,36,0,0,0,2.45-2.88,6.39,6.39,0,0,0,.93-1.1,7.75,7.75,0,0,0,2.2-4.81c0-2.86-2.13-5.44-5.58-6.74-2.87-1.07-7.08-1.34-9.53,1.46-.34.39-.65.82-1.11,1.44a9.75,9.75,0,0,1-.66.86c-.21.26-.44.5-.7.78s-.81.86-1.15,1.3c-.21.25-1.06,1.15-2.38,2.53a6,6,0,0,0-.16-4.43,4.59,4.59,0,0,0-3.42-2.39,24.24,24.24,0,0,0-9.14,1.07c-6.81,2.27-13.45,5.83-21.55,11.53-3.4,2.4-6.75,5-9.7,7.2l-.22.16c-2.41,1.84-4.81,3.66-7.23,5.41l-1.53,1.11a131.25,131.25,0,0,1-12.69,8.51c-1.35.76-2.69,1.54-4.24,2.44-3.41,2-6.95,4-10.51,5.7-7.7,3.53-14.66,6.52-21.89,7.36-4.21.44-6.35-.57-8.07-3.86l-.25-.87c-.21-.75-.42-1.49-.63-2.26a145.85,145.85,0,0,0,14.72-6.5,70.4,70.4,0,0,0,15.65-11.53c2.93-2.86,10.7-10.47,7.38-18.41-2.46-5.9-9.39-8.33-14.67-8.62a26.91,26.91,0,0,0-13.53,3.86c6.66-10.82,13.55-21.09,20.56-30.63s15-18.93,22.71-27.87c1-1.1,2-2.22,3.08-3.46,1.85-2.09,3.7-4.18,5.61-6.2.86-.91,1.75-1.79,2.72-2.72a5.61,5.61,0,0,1,.66-.56,4.11,4.11,0,0,1,.67-.28c1.22-.48,3.49-1.37,4.21-4a6.47,6.47,0,0,0-2.26-6.31c-3.51-3-8.44-2.44-11.53-.67a22.9,22.9,0,0,0-4.39,3.48c-.53.5-1.07,1-1.9,1.73l-10.18,10.79c-4.53,5.13-9.21,10.44-13.54,16-6.58,8-11.69,14.72-16.07,21a520.42,520.42,0,0,0-34.81,57.7c-3.28,6.27-6.58,12.84-9.76,19.43l-.85,1.54a52.12,52.12,0,0,0-4.19,8.85,5.47,5.47,0,0,0,0,4.24c1.21,2.91,4.61,4.45,5.72,4.89,3.47,1.16,8,.58,9.69-3.41a76.88,76.88,0,0,1,9.72-16.81l.19.65a24.7,24.7,0,0,0,4.66,7.91c5.16,5.77,12.64,7.93,22.91,6.59,8.89-1.31,17.29-4.93,24.44-8.21a127.3,127.3,0,0,0,16-8.13l.42-.26c0,.14,0,.27,0,.41a15,15,0,0,0,5.44,12,15.33,15.33,0,0,0,15,1.62,28.81,28.81,0,0,0,9.35-5.31c2.12-1.48,7.48-6.62,11.88-11.07a12.78,12.78,0,0,0,1.94,5.13c5.65,9.58,18.84,9,24.38,8.33,5.17-1,9.91-3.15,22.06-9.83a92.62,92.62,0,0,0,8-4.91c1-.66,2.08-1.39,3.33-2.2a20.89,20.89,0,0,0,0,8.87c.86,6.34,5.13,11.19,10.8,12.32,6.08,1.52,11.18-.41,15.86-2.74l-1,1.82c-2.17,4.11-4.36,8.53-6.66,13.5-14.06,1.84-28.31,3.83-40.52,5.56-12.39-6.9-28.27-11.26-48.53-13.33-49.49-5.06-123.53,3.8-240.1,28.73-56.17,12-55.35,17.08-54.4,23,.78,4.8,3.19,7.06,21.83,7.06,9.86,0,24.12-.7,43.6-2.13,34.95-2.57,82.72-7.31,138.16-13.71,43.51-5,84.07-11.08,123.28-16.94l6.51-1A50.47,50.47,0,0,1,568,509.86a34.79,34.79,0,0,1,7.45,19.19,42.39,42.39,0,0,1,.15,4.51c-.17,8-.6,19.05-1,23.07,0,3.48,3.77,6,6.39,6.68a14.6,14.6,0,0,0,2.84.29,7.8,7.8,0,0,0,4.58-1.24,5,5,0,0,0,2.11-3.51c2-17.63,9.25-34.49,16.25-50.82l2.27-5.35c2.12-5.06,4.14-9.86,6.43-14.78,25.16-2.69,68.09-7.21,81.48-8.28,5.79-.45,11.75-.76,17.73-.9a119.67,119.67,0,0,1,18.51.78l.49.06.55.07c1.94,2.89,6.79,3.77,9.52,2.87a3.79,3.79,0,0,0,2.81-4.58"/><path class="cls-1" d="M775.83,422.93a18,18,0,0,1-2.91-2.23,14.6,14.6,0,0,1-2.1-2.48,13.84,13.84,0,0,1-1.42-2.72,15.19,15.19,0,0,1-.84-2.88,13.62,13.62,0,0,1,.17-5.19c.25-1.28.62-2.6,1-3.87l.06-.24q.25-.9.48-1.8a24.28,24.28,0,0,0,.93-6.6,13.19,13.19,0,0,0-2.23-7.15,25.82,25.82,0,0,0-3.87-4.58,29.41,29.41,0,0,0-5-3.74,34.26,34.26,0,0,0-3.93-2,36,36,0,0,0,3.86-2,30.86,30.86,0,0,0,5.5-4.06,20.11,20.11,0,0,0,4-4.94,13,13,0,0,0,1.73-7.13,27.5,27.5,0,0,0-1.23-5.82c-.18-.62-.36-1.24-.52-1.86a4.12,4.12,0,0,1,2.62-5.44,13.83,13.83,0,0,1,2.65-1.06c.33-.09.66-.17,1-.23l.9-.18L775,341c-.36-.8-.57-1.28-1.11-1.11a14.52,14.52,0,0,0-3,.49,14.81,14.81,0,0,0-2.94,1.18,18.12,18.12,0,0,0-5.09,4,10.3,10.3,0,0,0-1.65,2.46,13.05,13.05,0,0,0-1,6.25c0,.9.13,1.79.22,2.69.11,1.09.22,2.22.24,3.31a10.18,10.18,0,0,1-2.35,6.57,15.38,15.38,0,0,1-3.65,3.26,20.29,20.29,0,0,1-5.2,2.42,24.69,24.69,0,0,1-4.81,1v-33l-1.49-.06a58.91,58.91,0,0,0-10.14.67,41,41,0,0,0-8.64,2.39,29.54,29.54,0,0,0-7.64,4.29,19.61,19.61,0,0,0-5.55,6.49,13.27,13.27,0,0,0-1.28,8.85,17.83,17.83,0,0,0,4.34,8,25.88,25.88,0,0,0,8,5.62c.56.27,1.1.52,1.64.74a32.58,32.58,0,0,0-4,2,28.55,28.55,0,0,0-5,3.73,25.76,25.76,0,0,0-3.86,4.57,13.31,13.31,0,0,0-2.24,7.15,24.92,24.92,0,0,0,.94,6.61c.17.66.35,1.31.53,2,.34,1.23.72,2.62,1,3.92a13.53,13.53,0,0,1,.17,5.21,14.67,14.67,0,0,1-.83,2.88,13.69,13.69,0,0,1-1.42,2.71,14.79,14.79,0,0,1-2.11,2.49,17,17,0,0,1-2.9,2.22l-1.27.78,2.14,4.82,1.82-.81a22.56,22.56,0,0,0,8-5.81,21.81,21.81,0,0,0,4.32-8,33.63,33.63,0,0,0,1.25-9.24,54.7,54.7,0,0,0-.37-6.77l-.15-1.25c-.26-1.92-.5-3.74.25-5.56a12.35,12.35,0,0,1,2.41-3.57,17.79,17.79,0,0,1,5.68-4.09,25.14,25.14,0,0,1,7.12-2v44.51l9.31,0V381.36a22.1,22.1,0,0,1,10.49,4c2.87,2.19,5.76,5.8,5.23,9.34a61.6,61.6,0,0,0-.79,9.91,33.22,33.22,0,0,0,1.27,9.24,21.53,21.53,0,0,0,4.31,8,22.47,22.47,0,0,0,8,5.8l1.81.8,2.14-4.8ZM735.3,373.55a21.77,21.77,0,0,1-5.59-1.72,19.55,19.55,0,0,1-5.58-3.48,11.27,11.27,0,0,1-3.87-8.32,10.23,10.23,0,0,1,1.94-5.5,15.44,15.44,0,0,1,4.41-4.09,22.47,22.47,0,0,1,7.89-3.17l.81-.13Z"/><path class="cls-1" d="M774.23,321.64H705.68a17.92,17.92,0,0,0-17.77,18v88.85a17.92,17.92,0,0,0,17.77,18h68.55a17.92,17.92,0,0,0,17.77-18V339.67a17.92,17.92,0,0,0-17.77-18m0,7.81a10.1,10.1,0,0,1,10,10.22v88.85a10.1,10.1,0,0,1-10,10.22H705.68a10.1,10.1,0,0,1-10-10.22V339.67a10.1,10.1,0,0,1,10-10.22Z"/></svg>